<mxfile host="app.diagrams.net" agent="Mozilla/5.0 (Windows NT 10.0; Win64; x64) AppleWebKit/537.36 (KHTML, like Gecko) Chrome/134.0.0.0 Safari/537.36" version="26.1.3">
  <diagram name="Page-1" id="74e2e168-ea6b-b213-b513-2b3c1d86103e">
    <mxGraphModel dx="1235" dy="655" grid="1" gridSize="10" guides="1" tooltips="1" connect="1" arrows="1" fold="1" page="1" pageScale="1" pageWidth="1100" pageHeight="850" background="none" math="0" shadow="0">
      <root>
        <mxCell id="0" />
        <mxCell id="1" parent="0" />
        <mxCell id="_oXndOMdLmsFyeQSf2oa-1" value="&lt;font style=&quot;font-size: 18px;&quot;&gt;拆分检修计划&lt;/font&gt;" style="swimlane;html=1;childLayout=stackLayout;startSize=20;rounded=0;shadow=0;labelBackgroundColor=none;strokeWidth=1;fontFamily=Verdana;fontSize=8;align=center;" vertex="1" parent="1">
          <mxGeometry x="70" y="20" width="640" height="480" as="geometry" />
        </mxCell>
        <mxCell id="_oXndOMdLmsFyeQSf2oa-2" value="接收请求" style="swimlane;html=1;startSize=20;" vertex="1" parent="_oXndOMdLmsFyeQSf2oa-1">
          <mxGeometry y="20" width="160" height="460" as="geometry">
            <mxRectangle y="20" width="40" height="730" as="alternateBounds" />
          </mxGeometry>
        </mxCell>
        <mxCell id="_oXndOMdLmsFyeQSf2oa-3" style="edgeStyle=orthogonalEdgeStyle;rounded=0;orthogonalLoop=1;jettySize=auto;html=1;exitX=0.5;exitY=1;exitDx=0;exitDy=0;entryX=0.5;entryY=0;entryDx=0;entryDy=0;" edge="1" parent="_oXndOMdLmsFyeQSf2oa-2" source="_oXndOMdLmsFyeQSf2oa-4" target="_oXndOMdLmsFyeQSf2oa-5">
          <mxGeometry relative="1" as="geometry" />
        </mxCell>
        <mxCell id="_oXndOMdLmsFyeQSf2oa-4" value="&lt;font style=&quot;font-size: 12px;&quot;&gt;开始&lt;/font&gt;" style="rounded=1;whiteSpace=wrap;html=1;shadow=0;labelBackgroundColor=none;strokeWidth=1;fontFamily=Verdana;fontSize=8;align=center;" vertex="1" parent="_oXndOMdLmsFyeQSf2oa-2">
          <mxGeometry x="20" y="60" width="100" height="60" as="geometry" />
        </mxCell>
        <mxCell id="_oXndOMdLmsFyeQSf2oa-5" value="&lt;font style=&quot;font-size: 12px;&quot;&gt;参数验证&lt;/font&gt;" style="rhombus;whiteSpace=wrap;html=1;rounded=0;shadow=0;labelBackgroundColor=none;strokeWidth=1;fontFamily=Verdana;fontSize=8;align=center;" vertex="1" parent="_oXndOMdLmsFyeQSf2oa-2">
          <mxGeometry x="20" y="160" width="100" height="75" as="geometry" />
        </mxCell>
        <mxCell id="_oXndOMdLmsFyeQSf2oa-6" style="edgeStyle=orthogonalEdgeStyle;rounded=0;orthogonalLoop=1;jettySize=auto;html=1;exitX=0.5;exitY=1;exitDx=0;exitDy=0;entryX=0.5;entryY=0;entryDx=0;entryDy=0;" edge="1" parent="_oXndOMdLmsFyeQSf2oa-2" source="_oXndOMdLmsFyeQSf2oa-5" target="_oXndOMdLmsFyeQSf2oa-8">
          <mxGeometry relative="1" as="geometry">
            <mxPoint x="70" y="980" as="targetPoint" />
          </mxGeometry>
        </mxCell>
        <mxCell id="_oXndOMdLmsFyeQSf2oa-7" value="否" style="edgeLabel;html=1;align=center;verticalAlign=middle;resizable=0;points=[];" vertex="1" connectable="0" parent="_oXndOMdLmsFyeQSf2oa-6">
          <mxGeometry x="-0.24" y="-1" relative="1" as="geometry">
            <mxPoint as="offset" />
          </mxGeometry>
        </mxCell>
        <mxCell id="_oXndOMdLmsFyeQSf2oa-8" value="&lt;span style=&quot;font-size: 12px;&quot;&gt;失败返回&lt;/span&gt;" style="whiteSpace=wrap;html=1;fontSize=8;fontFamily=Verdana;rounded=0;shadow=0;labelBackgroundColor=none;strokeWidth=1;" vertex="1" parent="_oXndOMdLmsFyeQSf2oa-2">
          <mxGeometry x="20" y="380" width="100" height="60" as="geometry" />
        </mxCell>
        <mxCell id="_oXndOMdLmsFyeQSf2oa-9" value="主检修计划分析" style="swimlane;html=1;startSize=20;" vertex="1" parent="_oXndOMdLmsFyeQSf2oa-1">
          <mxGeometry x="160" y="20" width="160" height="460" as="geometry" />
        </mxCell>
        <mxCell id="_oXndOMdLmsFyeQSf2oa-68" style="edgeStyle=orthogonalEdgeStyle;rounded=0;orthogonalLoop=1;jettySize=auto;html=1;exitX=0.5;exitY=1;exitDx=0;exitDy=0;entryX=0.5;entryY=0;entryDx=0;entryDy=0;" edge="1" parent="_oXndOMdLmsFyeQSf2oa-9" source="_oXndOMdLmsFyeQSf2oa-11" target="_oXndOMdLmsFyeQSf2oa-16">
          <mxGeometry relative="1" as="geometry" />
        </mxCell>
        <mxCell id="_oXndOMdLmsFyeQSf2oa-11" value="&lt;span style=&quot;font-size: 12px;&quot;&gt;查询计划的&lt;/span&gt;&lt;div&gt;&lt;span style=&quot;font-size: 12px;&quot;&gt;组成计划&lt;/span&gt;&lt;/div&gt;" style="whiteSpace=wrap;html=1;fontSize=8;fontFamily=Verdana;rounded=0;shadow=0;labelBackgroundColor=none;strokeWidth=1;" vertex="1" parent="_oXndOMdLmsFyeQSf2oa-9">
          <mxGeometry x="30" y="167.5" width="100" height="60" as="geometry" />
        </mxCell>
        <mxCell id="_oXndOMdLmsFyeQSf2oa-71" style="edgeStyle=orthogonalEdgeStyle;rounded=0;orthogonalLoop=1;jettySize=auto;html=1;exitX=0.5;exitY=1;exitDx=0;exitDy=0;" edge="1" parent="_oXndOMdLmsFyeQSf2oa-9" source="_oXndOMdLmsFyeQSf2oa-16">
          <mxGeometry relative="1" as="geometry">
            <mxPoint x="240" y="370" as="targetPoint" />
            <Array as="points">
              <mxPoint x="80" y="370" />
            </Array>
          </mxGeometry>
        </mxCell>
        <mxCell id="_oXndOMdLmsFyeQSf2oa-72" value="否" style="edgeLabel;html=1;align=center;verticalAlign=middle;resizable=0;points=[];" vertex="1" connectable="0" parent="_oXndOMdLmsFyeQSf2oa-71">
          <mxGeometry x="-0.8867" relative="1" as="geometry">
            <mxPoint as="offset" />
          </mxGeometry>
        </mxCell>
        <mxCell id="_oXndOMdLmsFyeQSf2oa-16" value="&lt;span style=&quot;font-size: 12px;&quot;&gt;存在组成计划&lt;/span&gt;" style="rhombus;whiteSpace=wrap;html=1;rounded=0;shadow=0;labelBackgroundColor=none;strokeWidth=1;fontFamily=Verdana;fontSize=8;align=center;" vertex="1" parent="_oXndOMdLmsFyeQSf2oa-9">
          <mxGeometry x="30" y="270" width="100" height="75" as="geometry" />
        </mxCell>
        <mxCell id="_oXndOMdLmsFyeQSf2oa-22" value="更新组成计划" style="swimlane;html=1;startSize=20;" vertex="1" parent="_oXndOMdLmsFyeQSf2oa-1">
          <mxGeometry x="320" y="20" width="160" height="460" as="geometry" />
        </mxCell>
        <mxCell id="_oXndOMdLmsFyeQSf2oa-24" value="&lt;span style=&quot;font-size: 12px;&quot;&gt;更新&lt;/span&gt;&lt;div&gt;&lt;span style=&quot;font-size: 12px;&quot;&gt;组成计划的合并状态，和相关时间字段&lt;/span&gt;&lt;/div&gt;" style="whiteSpace=wrap;html=1;fontSize=8;fontFamily=Verdana;rounded=0;shadow=0;labelBackgroundColor=none;strokeWidth=1;" vertex="1" parent="_oXndOMdLmsFyeQSf2oa-22">
          <mxGeometry x="30" y="270" width="100" height="60" as="geometry" />
        </mxCell>
        <mxCell id="_oXndOMdLmsFyeQSf2oa-27" style="edgeStyle=orthogonalEdgeStyle;rounded=0;orthogonalLoop=1;jettySize=auto;html=1;exitX=0.5;exitY=1;exitDx=0;exitDy=0;" edge="1" parent="_oXndOMdLmsFyeQSf2oa-22" source="_oXndOMdLmsFyeQSf2oa-28" target="_oXndOMdLmsFyeQSf2oa-24">
          <mxGeometry relative="1" as="geometry" />
        </mxCell>
        <mxCell id="_oXndOMdLmsFyeQSf2oa-28" value="&lt;span style=&quot;font-size: 12px;&quot;&gt;查询&lt;/span&gt;&lt;div&gt;&lt;span style=&quot;font-size: 12px;&quot;&gt;检修计划变更信息&lt;/span&gt;&lt;/div&gt;" style="whiteSpace=wrap;html=1;fontSize=8;fontFamily=Verdana;rounded=0;shadow=0;labelBackgroundColor=none;strokeWidth=1;" vertex="1" parent="_oXndOMdLmsFyeQSf2oa-22">
          <mxGeometry x="30" y="170" width="100" height="60" as="geometry" />
        </mxCell>
        <mxCell id="_oXndOMdLmsFyeQSf2oa-39" value="更新主检修计划" style="swimlane;html=1;startSize=20;" vertex="1" parent="_oXndOMdLmsFyeQSf2oa-1">
          <mxGeometry x="480" y="20" width="160" height="460" as="geometry" />
        </mxCell>
        <mxCell id="_oXndOMdLmsFyeQSf2oa-42" value="&lt;span style=&quot;font-size: 12px;&quot;&gt;成功返回&lt;/span&gt;" style="whiteSpace=wrap;html=1;fontSize=8;fontFamily=Verdana;rounded=0;shadow=0;labelBackgroundColor=none;strokeWidth=1;" vertex="1" parent="_oXndOMdLmsFyeQSf2oa-39">
          <mxGeometry x="30" y="380" width="100" height="60" as="geometry" />
        </mxCell>
        <mxCell id="_oXndOMdLmsFyeQSf2oa-73" style="edgeStyle=orthogonalEdgeStyle;rounded=0;orthogonalLoop=1;jettySize=auto;html=1;exitX=0.5;exitY=1;exitDx=0;exitDy=0;entryX=0.5;entryY=0;entryDx=0;entryDy=0;" edge="1" parent="_oXndOMdLmsFyeQSf2oa-39" source="_oXndOMdLmsFyeQSf2oa-44" target="_oXndOMdLmsFyeQSf2oa-42">
          <mxGeometry relative="1" as="geometry" />
        </mxCell>
        <mxCell id="_oXndOMdLmsFyeQSf2oa-44" value="&lt;span style=&quot;font-size: 12px;&quot;&gt;逻辑删除&lt;/span&gt;&lt;div&gt;&lt;span style=&quot;font-size: 12px;&quot;&gt;主检修计划&lt;/span&gt;&lt;/div&gt;" style="whiteSpace=wrap;html=1;fontSize=8;fontFamily=Verdana;rounded=0;shadow=0;labelBackgroundColor=none;strokeWidth=1;" vertex="1" parent="_oXndOMdLmsFyeQSf2oa-39">
          <mxGeometry x="30" y="170" width="100" height="60" as="geometry" />
        </mxCell>
        <mxCell id="_oXndOMdLmsFyeQSf2oa-53" value="" style="edgeStyle=orthogonalEdgeStyle;rounded=0;orthogonalLoop=1;jettySize=auto;html=1;" edge="1" parent="_oXndOMdLmsFyeQSf2oa-1" source="_oXndOMdLmsFyeQSf2oa-5">
          <mxGeometry relative="1" as="geometry">
            <mxPoint x="190" y="217.5" as="targetPoint" />
          </mxGeometry>
        </mxCell>
        <mxCell id="_oXndOMdLmsFyeQSf2oa-54" value="是" style="edgeLabel;html=1;align=center;verticalAlign=middle;resizable=0;points=[];" vertex="1" connectable="0" parent="_oXndOMdLmsFyeQSf2oa-53">
          <mxGeometry x="-0.5771" relative="1" as="geometry">
            <mxPoint as="offset" />
          </mxGeometry>
        </mxCell>
        <mxCell id="_oXndOMdLmsFyeQSf2oa-66" style="edgeStyle=orthogonalEdgeStyle;rounded=0;orthogonalLoop=1;jettySize=auto;html=1;entryX=0.5;entryY=0;entryDx=0;entryDy=0;exitX=0.5;exitY=1;exitDx=0;exitDy=0;" edge="1" parent="_oXndOMdLmsFyeQSf2oa-1" source="_oXndOMdLmsFyeQSf2oa-24" target="_oXndOMdLmsFyeQSf2oa-44">
          <mxGeometry relative="1" as="geometry">
            <mxPoint x="400" y="420" as="sourcePoint" />
            <Array as="points">
              <mxPoint x="400" y="390" />
              <mxPoint x="470" y="390" />
              <mxPoint x="470" y="150" />
              <mxPoint x="560" y="150" />
            </Array>
          </mxGeometry>
        </mxCell>
        <mxCell id="_oXndOMdLmsFyeQSf2oa-69" style="edgeStyle=orthogonalEdgeStyle;rounded=0;orthogonalLoop=1;jettySize=auto;html=1;exitX=1;exitY=0.5;exitDx=0;exitDy=0;entryX=0.5;entryY=0;entryDx=0;entryDy=0;" edge="1" parent="_oXndOMdLmsFyeQSf2oa-1" source="_oXndOMdLmsFyeQSf2oa-16" target="_oXndOMdLmsFyeQSf2oa-28">
          <mxGeometry relative="1" as="geometry">
            <Array as="points">
              <mxPoint x="310" y="328" />
              <mxPoint x="310" y="150" />
              <mxPoint x="400" y="150" />
            </Array>
          </mxGeometry>
        </mxCell>
        <mxCell id="_oXndOMdLmsFyeQSf2oa-70" value="是" style="edgeLabel;html=1;align=center;verticalAlign=middle;resizable=0;points=[];" vertex="1" connectable="0" parent="_oXndOMdLmsFyeQSf2oa-69">
          <mxGeometry x="-0.9157" y="-3" relative="1" as="geometry">
            <mxPoint as="offset" />
          </mxGeometry>
        </mxCell>
      </root>
    </mxGraphModel>
  </diagram>
</mxfile>
